<svg xmlns="http://www.w3.org/2000/svg" width="1536" height="1024" viewBox="0 0 1536 1024" role="img" aria-label="business tools connected through one workflow"><defs><linearGradient id="bg" x2=".7" y2="1"><stop stop-color="#f5f4ed"/><stop offset="1" stop-color="#dde3d8"/></linearGradient><linearGradient id="panel" x2=".8" y2="1"><stop stop-color="#fff" stop-opacity=".94"/><stop offset="1" stop-color="#e9ede5" stop-opacity=".85"/></linearGradient><filter id="shadow" x="-30%" y="-30%" width="170%" height="190%"><feDropShadow dx="0" dy="16" stdDeviation="20" flood-color="#52634c" flood-opacity=".13"/></filter><pattern id="grid" width="48" height="48" patternUnits="userSpaceOnUse"><path d="M48 0H0V48" fill="none" stroke="#647963" stroke-opacity=".045"/></pattern></defs><rect width="1536" height="1024" fill="url(#bg)"/><rect width="1536" height="1024" fill="url(#grid)"/><g font-family="Arial,sans-serif"><path d="M440 310H590V500H650M440 710H590V525H650M900 510H1040V310H1100M1040 510V710H1100" fill="none" stroke="#80907f" stroke-width="2"/><g filter="url(#shadow)"><rect x="180" y="230" width="260" height="160" rx="14" fill="url(#panel)" stroke="#c4ccc0"/><circle cx="210" cy="260" r="5" fill="#789371"/><text x="206" y="310" font-size="21" fill="#364638">your data</text><text x="206" y="342" font-size="15" fill="#7b887c">approved sources</text></g><g filter="url(#shadow)"><rect x="180" y="630" width="260" height="160" rx="14" fill="url(#panel)" stroke="#c4ccc0"/><circle cx="210" cy="660" r="5" fill="#789371"/><text x="206" y="710" font-size="21" fill="#364638">your tools</text><text x="206" y="742" font-size="15" fill="#7b887c">existing applications</text></g><g filter="url(#shadow)"><rect x="650" y="415" width="250" height="195" rx="14" fill="url(#panel)" stroke="#c4ccc0"/><circle cx="680" cy="445" r="5" fill="#789371"/><text x="676" y="495" font-size="21" fill="#364638">one workflow</text><text x="676" y="527" font-size="15" fill="#7b887c">connected steps</text></g><g filter="url(#shadow)"><rect x="1100" y="230" width="250" height="160" rx="14" fill="url(#panel)" stroke="#c4ccc0"/><circle cx="1130" cy="260" r="5" fill="#789371"/><text x="1126" y="310" font-size="21" fill="#364638">your team</text><text x="1126" y="342" font-size="15" fill="#7b887c">review and action</text></g><g filter="url(#shadow)"><rect x="1100" y="630" width="250" height="160" rx="14" fill="url(#panel)" stroke="#c4ccc0"/><circle cx="1130" cy="660" r="5" fill="#789371"/><text x="1126" y="710" font-size="21" fill="#364638">your systems</text><text x="1126" y="742" font-size="15" fill="#7b887c">structured updates</text></g></g></svg>