<svg xmlns="http://www.w3.org/2000/svg" xmlns:xlink="http://www.w3.org/1999/xlink"><symbol viewBox="0 0 34 12" id="arrow"><path d="M2.647 5v2H0V5h2.647Zm14.824 0v2H7.235V5h10.236ZM28 5v2h-2.648V5H28ZM34 6l-6 6V0l6 6Zm-4 1.172L31.172 6 30 4.828v2.344Z"/></symbol><symbol viewBox="0 0 6 13" fill="none" id="arrowNoLine"><path d="M4.586 6.5 1 10.086V2.914L4.586 6.5Z" stroke="#000" stroke-width="2"/></symbol><symbol viewBox="0 0 28 2" id="menuClose"><path d="M1.941 2H0V0h1.941v2Zm8.471 0H3.706V0h6.706v2ZM19.4 0v2H14.06V0H19.4ZM28 2h-6.6V0H28v2Z"/></symbol><symbol viewBox="0 0 28 8" id="menuOpen"><path d="M6.6 6v2H0V6h6.6Zm13.067 0v2h-5.733V6h5.733ZM28 6v2h-6.6V6H28ZM2.647 0v2H0V0h2.647Zm14.824 0v2H7.235V0h10.236ZM28 0v2h-2.648V0H28Z"/></symbol><symbol viewBox="0 0 14 14" id="plus"><path d="M14 8H8v6H6V8H0V6h6V0h2v6h6v2Z"/></symbol></svg>